<svg xmlns="http://www.w3.org/2000/svg" width="27" height="24" viewBox="0 0 27 24"><g><g><g><path fill="none" stroke="#000" stroke-linecap="round" stroke-linejoin="round" stroke-miterlimit="20" stroke-width="1.71" d="M21.898 15.248v0h2.231c1.01 0 1.83-.9 1.83-2.01V6.33v0H1.27v6.908c0 1.11.818 2.01 1.829 2.01h2.23v0"/></g><g/><g><path fill="none" stroke="#000" stroke-linecap="round" stroke-linejoin="round" stroke-miterlimit="20" stroke-width="1.71" d="M25.958 13.24v7.41c0 1.11-.819 2.01-1.829 2.01H3.1c-1.01 0-1.829-.9-1.829-2.01v-7.41 0"/></g><g><path fill="none" stroke="#000" stroke-linecap="round" stroke-linejoin="round" stroke-miterlimit="20" stroke-width=".85" d="M18.82 12.961v0V8.46v0h2.377v4.501"/></g><g><path fill="none" stroke="#000" stroke-linecap="round" stroke-linejoin="round" stroke-miterlimit="20" stroke-width=".85" d="M8.407 12.961v0V8.46v0H6.03v4.501"/></g><g><path fill="none" stroke="#000" stroke-linecap="round" stroke-linejoin="round" stroke-miterlimit="20" stroke-width=".85" d="M21.197 16.12v2.492H18.82v0-2.492 0"/></g><g><path fill="none" stroke="#000" stroke-linecap="round" stroke-linejoin="round" stroke-miterlimit="20" stroke-width=".85" d="M6.03 16.12v2.492h2.377v0-2.492 0"/></g><g><path fill="#fff" d="M18.11 16.129h3.793V12.97H18.11z"/><path fill="none" stroke="#000" stroke-linecap="round" stroke-linejoin="round" stroke-miterlimit="20" stroke-width=".85" d="M18.11 16.129v0h3.793v0-3.159 0H18.11v0z"/></g><g><path fill="#fff" d="M5.33 16.129h3.793V12.97H5.33z"/><path fill="none" stroke="#000" stroke-linecap="round" stroke-linejoin="round" stroke-miterlimit="20" stroke-width=".85" d="M5.33 16.129v0h3.793v0-3.159 0H5.33v0z"/></g><g><path fill="none" stroke="#000" stroke-linecap="round" stroke-linejoin="round" stroke-miterlimit="20" stroke-width=".62" d="M20.006 14.24v-2.01"/></g><g><path fill="none" stroke="#000" stroke-linecap="round" stroke-linejoin="round" stroke-miterlimit="20" stroke-width=".62" d="M7.226 14.24v-2.01"/></g><g><path fill="none" stroke="#000" stroke-linecap="round" stroke-linejoin="round" stroke-miterlimit="20" stroke-width="1.71" d="M4.47 6.328v0l7.433-4.423a3.37 3.37 0 0 1 3.495.007l7.36 4.416v0"/></g></g></g></svg>