<svg xmlns="http://www.w3.org/2000/svg" width="28" height="28" viewBox="0 0 28 28"><g><g opacity=".16"><path fill="#2f302f" d="M14 28c7.732 0 14-6.268 14-14S21.732 0 14 0 0 6.268 0 14s6.268 14 14 14z"/></g><g><path fill="#0e211d" d="M7.928 22a.913.913 0 0 1-.668-.293.98.98 0 0 1-.26-.701l.433-12.61c.018-.516.428-.925.927-.925H10.9V3.96c0-.53.415-.96.927-.96h4.348c.512 0 .927.43.927.96v3.51h2.539c.5 0 .91.41.927.927l.432 12.609a.98.98 0 0 1-.26.7.913.913 0 0 1-.667.294zm8.398-13.211c-.49 0-.886.41-.886.917 0 .506.397.917.886.917.49 0 .886-.41.886-.917 0-.506-.397-.917-.886-.917zM12.56 7.47h2.88V4.719h-2.88zm-.886 1.318c-.49 0-.886.41-.886.917 0 .506.397.917.886.917.49 0 .886-.41.886-.917 0-.506-.397-.917-.886-.917z"/></g></g></svg>