<svg xmlns="http://www.w3.org/2000/svg" width="18" height="25" viewBox="0 0 18 25"><g><g><path d="M.24 24.467a.872.872 0 0 1-.237-.669L1.804.816A.894.894 0 0 1 2.703 0h12.611c.47 0 .862.355.898.816l1.802 22.982a.872.872 0 0 1-.238.67.907.907 0 0 1-.66.282H11.71a.895.895 0 0 1-.89-.746L9.009 12.739 7.195 24.004a.895.895 0 0 1-.89.746H.902a.907.907 0 0 1-.66-.283zM8.109 4.862c0 .576.376 1.067.9 1.25V1.767h-.9zm6.372-3.094H9.91v4.861c0 .071-.02.135-.051.195.011.037.032.07.038.11l2.583 16.048h1.79L12.613 7.56a.443.443 0 0 1 .4-.486.443.443 0 0 1 .496.393l1.665 15.515h.968L14.884 6.934 12.676 3.32a.437.437 0 0 1 .155-.606.456.456 0 0 1 .618.152l1.282 2.097zm-10.943 0l-.252 3.196 1.283-2.097a.456.456 0 0 1 .618-.152.437.437 0 0 1 .155.606L3.132 6.934 1.874 22.982h.968L4.507 7.467a.444.444 0 0 1 .495-.393.443.443 0 0 1 .4.486L3.748 22.982h1.789L8.119 6.934a.866.866 0 0 1 .084-.24 2.197 2.197 0 0 1-.996-1.832V1.768z"/></g></g></svg>