<svg xmlns="http://www.w3.org/2000/svg" width="28" height="21" viewBox="0 0 28 21"><g><g><path fill="#1d1d1b" d="M0 18.232v2h27.382v-.613c0-.001.243-1.182.335-2.688.153-2.519-1.655-4.683-4.148-5.071a10.986 10.986 0 0 1-1.261-.266c-1.567-.44-3.292-.793-4.905-1.454a.372.372 0 0 0-.135-.452.375.375 0 0 0-.52.107l-.027.041a10.71 10.71 0 0 1-.851-.455.371.371 0 0 0-.015-.507.375.375 0 0 0-.531.007l-.084.087a8.31 8.31 0 0 1-.609-.479.37.37 0 0 0-.499-.542l-.04.028a7.924 7.924 0 0 1-.555-.642l.029-.014a.376.376 0 0 0-.325-.676l-.138.066a9.247 9.247 0 0 1-.393-.689.37.37 0 0 0 .226-.434.377.377 0 0 0-.455-.271l-.09.022c-.067-.154-.137-.299-.197-.462a3.315 3.315 0 0 1-.097-.435.373.373 0 0 0 .308-.419.362.362 0 0 0-.408-.318c-.031-.282-.057-.557-.08-.788a.375.375 0 0 0 .322-.406.366.366 0 0 0-.411-.335l-.023.002C11.494.905 10.325 0 8.988 0h-4.8a2.99 2.99 0 0 0-2.901 2.235C.71 4.455.071 9.714.007 18.232zm2.011-.612c.017-1.485.051-2.865.099-4.144.265-.011.588-.009.943.013-.001 1.764.041 3.237.074 4.131zm1.627 0c-.033-.88-.076-2.337-.076-4.086 1.05.127 2.32.469 3.495 1.297 1.373.966 2.096 2.003 2.481 2.789zM3.227 2.738a.979.979 0 0 1 .722-.698c-.654 3.102-.853 7.136-.886 10.442a9.266 9.266 0 0 0-.9-.012c.22-4.889.652-8.137 1.064-9.732zm11.236 8.104c.378.247.763.473 1.154.672l-.254.387a.376.376 0 0 0 .627.413l.312-.476c.82.362 1.648.638 2.448.872-1.492.14-3.041.501-4.181 1.303-1.786 1.254-2.619 2.653-3.007 3.607h-.928c-.388-.954-1.222-2.353-3.007-3.607-1.39-.978-2.869-1.361-4.07-1.489.032-3.339.235-7.429.913-10.524h4.518c.31 0 .585.157.75.384l-.528.053a.376.376 0 1 0 .037.748c.012 0 .025 0 .037-.002l.644-.065.002.024c.028.298.058.574.087.837l-.573.081a.374.374 0 1 0 .105.742l.57-.08c.048.291.103.558.174.776l.026.073c.034.092.075.173.11.263l-.47.118a.375.375 0 0 0 .184.728l.581-.147c.174.371.365.715.564 1.043l-.541.258a.376.376 0 0 0 .325.677l.629-.301c.234.328.482.626.738.91l-.468.323a.378.378 0 0 0-.095.523.38.38 0 0 0 .523.095l.568-.394c.282.268.576.51.876.736l-.486.5a.375.375 0 1 0 .537.524zm8.798 2.994c1.491.232 2.549 1.51 2.46 2.973-.018.285-.041.557-.067.811H12.657c.388-.786 1.111-1.823 2.486-2.789 2.283-1.603 6.707-1.182 7.936-1.028.062.011.119.023.182.033z"/></g></g></svg>