<svg xmlns="http://www.w3.org/2000/svg" width="27" height="21" viewBox="0 0 27 21"><g><g><path fill="#0e211d" d="M27.007 3.671l-.9 4.376a.871.871 0 0 1-.388.558.92.92 0 0 1-.682.126l-4.318-.882v12.276a.888.888 0 0 1-.901.875H7.206a.888.888 0 0 1-.9-.875V7.812l-4.312.917a.916.916 0 0 1-.685-.122.871.871 0 0 1-.39-.56L.018 3.67a.87.87 0 0 1 .567-.99l7.15-2.6A.902.902 0 0 1 8.106 0h10.81c.147 0 .287.034.41.094L26.44 2.68c.413.15.654.57.567.991zm-16.5-1.921a3.137 3.137 0 0 0 3.005 2.188 3.136 3.136 0 0 0 3.006-2.188zM25.09 4.058L18.739 1.75h-1.282c-.412 1.75-2.02 3.063-3.945 3.063-1.924 0-3.533-1.313-3.945-3.063H8.286L1.935 4.058l.57 2.771 4.509-.959a.915.915 0 0 1 .757.174.863.863 0 0 1 .336.681V19.25h10.81V6.77c0-.263.123-.513.333-.68a.921.921 0 0 1 .754-.176l4.514.922z"/></g></g></svg>